<svg width="48" height="48" viewBox="0 0 48 48" fill="none" xmlns="http://www.w3.org/2000/svg">
<path fill-rule="evenodd" clip-rule="evenodd" d="M11.2365 22L16.6845 11.106C17.0245 10.424 17.7105 10 18.4725 10H29.5285C30.2905 10 30.9765 10.424 31.3165 11.106L36.7645 22H11.2365ZM32.0005 34H24.0005C22.9005 34 22.0005 33.1 22.0005 32C22.0005 30.9 22.9005 30 24.0005 30H32.0005C33.1005 30 34.0005 30.9 34.0005 32C34.0005 33.1 33.1005 34 32.0005 34ZM16.0005 34C14.9005 34 14.0005 33.1 14.0005 32C14.0005 30.9 14.9005 30 16.0005 30C17.1005 30 18.0005 30.9 18.0005 32C18.0005 33.1 17.1005 34 16.0005 34ZM41.5785 22.684L34.8945 9.316C33.8705 7.272 31.8165 6 29.5285 6H18.4725C16.1845 6 14.1285 7.272 13.1065 9.316L6.42249 22.684C6.14649 23.236 6.00049 23.856 6.00049 24.472V36C6.00049 39.308 8.69249 42 12.0005 42H36.0005C39.3085 42 42.0005 39.308 42.0005 36V24.472C42.0005 23.856 41.8545 23.236 41.5785 22.684Z" fill="#0088BD"/>
<mask id="mask0" mask-type="alpha" maskUnits="userSpaceOnUse" x="6" y="6" width="37" height="36">
<path fill-rule="evenodd" clip-rule="evenodd" d="M11.2365 22L16.6845 11.106C17.0245 10.424 17.7105 10 18.4725 10H29.5285C30.2905 10 30.9765 10.424 31.3165 11.106L36.7645 22H11.2365ZM32.0005 34H24.0005C22.9005 34 22.0005 33.1 22.0005 32C22.0005 30.9 22.9005 30 24.0005 30H32.0005C33.1005 30 34.0005 30.9 34.0005 32C34.0005 33.1 33.1005 34 32.0005 34ZM16.0005 34C14.9005 34 14.0005 33.1 14.0005 32C14.0005 30.9 14.9005 30 16.0005 30C17.1005 30 18.0005 30.9 18.0005 32C18.0005 33.1 17.1005 34 16.0005 34ZM41.5785 22.684L34.8945 9.316C33.8705 7.272 31.8165 6 29.5285 6H18.4725C16.1845 6 14.1285 7.272 13.1065 9.316L6.42249 22.684C6.14649 23.236 6.00049 23.856 6.00049 24.472V36C6.00049 39.308 8.69249 42 12.0005 42H36.0005C39.3085 42 42.0005 39.308 42.0005 36V24.472C42.0005 23.856 41.8545 23.236 41.5785 22.684Z" fill="white"/>
</mask>
<g mask="url(#mask0)">
</g>
</svg>
